<svg xmlns="http://www.w3.org/2000/svg" viewBox="0 0 700 380" font-family="system-ui,-apple-system,sans-serif">
  <rect width="700" height="380" fill="#0d1117" rx="8"/>
  <text x="350.0" y="28" text-anchor="middle" fill="#e6edf3" font-size="15" font-weight="bold">Tests Passing Over 234 Agent Iterations</text>
  <line x1="55" y1="325.0" x2="670" y2="325.0" stroke="#21262d" stroke-width="1"/>
  <text x="49" y="329.0" text-anchor="end" fill="#8b949e" font-size="10">0</text>
  <line x1="55" y1="274.1434689507495" x2="670" y2="274.1434689507495" stroke="#21262d" stroke-width="1"/>
  <text x="49" y="278.1434689507495" text-anchor="end" fill="#8b949e" font-size="10">250</text>
  <line x1="55" y1="223.28693790149893" x2="670" y2="223.28693790149893" stroke="#21262d" stroke-width="1"/>
  <text x="49" y="227.28693790149893" text-anchor="end" fill="#8b949e" font-size="10">500</text>
  <line x1="55" y1="172.43040685224838" x2="670" y2="172.43040685224838" stroke="#21262d" stroke-width="1"/>
  <text x="49" y="176.43040685224838" text-anchor="end" fill="#8b949e" font-size="10">750</text>
  <line x1="55" y1="121.57387580299786" x2="670" y2="121.57387580299786" stroke="#21262d" stroke-width="1"/>
  <text x="49" y="125.57387580299786" text-anchor="end" fill="#8b949e" font-size="10">1000</text>
  <line x1="55" y1="70.71734475374731" x2="670" y2="70.71734475374731" stroke="#21262d" stroke-width="1"/>
  <text x="49" y="74.71734475374731" text-anchor="end" fill="#8b949e" font-size="10">1250</text>
  <line x1="55" y1="40.0" x2="670" y2="40.0" stroke="#21262d" stroke-width="1"/>
  <text x="49" y="44.0" text-anchor="end" fill="#8b949e" font-size="10">1401</text>
  <text x="55" y="341" text-anchor="middle" fill="#8b949e" font-size="10">0</text>
  <text x="208.75" y="341" text-anchor="middle" fill="#8b949e" font-size="10">58</text>
  <text x="362.5" y="341" text-anchor="middle" fill="#8b949e" font-size="10">117</text>
  <text x="516.25" y="341" text-anchor="middle" fill="#8b949e" font-size="10">175</text>
  <text x="670.0" y="341" text-anchor="middle" fill="#8b949e" font-size="10">234</text>
  <text x="350.0" y="372" text-anchor="middle" fill="#8b949e" font-size="11">agent iteration</text>
  <text x="14" y="182.5" text-anchor="middle" fill="#8b949e" font-size="11" transform="rotate(-90 14 182.5)">tests passing</text>
  <polygon points="55,325 55.0,317.1 57.6,316.7 60.3,315.8 62.9,315.4 65.6,314.8 68.2,313.4 70.8,312.4 73.5,312.2 76.1,312.0 78.8,311.6 81.4,311.4 84.0,311.2 86.7,310.8 89.3,310.4 92.0,310.1 94.6,309.9 97.2,309.9 99.9,309.7 102.5,309.5 105.2,309.5 107.8,309.5 110.4,309.3 113.1,309.3 115.7,309.1 118.3,309.1 121.0,309.1 123.6,309.1 126.3,309.1 128.9,308.7 131.5,308.7 134.2,308.7 136.8,308.5 139.5,308.3 142.1,308.1 144.7,308.1 147.4,307.9 150.0,307.5 152.7,307.5 155.3,307.5 157.9,307.5 160.6,307.1 163.2,306.9 165.9,306.7 168.5,306.7 171.1,306.7 173.8,306.5 176.4,306.3 179.1,306.1 181.7,306.1 184.3,306.1 187.0,306.1 189.6,305.9 192.3,305.7 194.9,305.5 197.5,304.9 200.2,304.7 202.8,304.7 205.5,304.7 208.1,304.7 210.7,304.7 213.4,304.5 216.0,304.5 218.6,304.5 221.3,304.5 223.9,304.3 226.6,304.0 229.2,304.0 231.8,303.8 234.5,303.8 237.1,303.6 239.8,303.6 242.4,303.6 245.0,303.6 247.7,303.6 250.3,303.6 253.0,303.6 255.6,303.6 258.2,291.8 260.9,285.5 263.5,280.7 266.2,279.6 268.8,278.8 271.4,277.8 274.1,277.6 276.7,277.4 279.4,276.2 282.0,275.8 284.6,275.6 287.3,275.4 289.9,275.2 292.6,275.2 295.2,275.2 297.8,275.0 300.5,275.0 303.1,275.0 305.8,274.8 308.4,274.6 311.0,274.3 313.7,273.9 316.3,273.9 318.9,273.7 321.6,273.5 324.2,273.5 326.9,273.5 329.5,272.3 332.1,270.9 334.8,268.7 337.4,268.7 340.1,268.0 342.7,267.0 345.3,266.8 348.0,264.0 350.6,263.4 353.3,262.1 355.9,260.7 358.5,259.3 361.2,257.7 363.8,257.1 366.5,255.4 369.1,254.0 371.7,253.2 374.4,252.8 377.0,252.0 379.7,251.8 382.3,251.2 384.9,249.3 387.6,247.9 390.2,243.6 392.9,242.4 395.5,242.0 398.1,241.0 400.8,240.8 403.4,239.6 406.1,238.3 408.7,237.9 411.3,236.3 414.0,235.1 416.6,233.5 419.2,232.8 421.9,231.0 424.5,228.0 427.2,223.3 429.8,221.7 432.4,220.6 435.1,219.4 437.7,219.0 440.4,217.4 443.0,214.9 445.6,213.1 448.3,211.5 450.9,209.9 453.6,208.4 456.2,205.6 458.8,202.9 461.5,202.7 464.1,201.9 466.8,200.3 469.4,199.5 472.0,199.1 474.7,198.5 477.3,196.2 480.0,194.8 482.6,192.8 485.2,190.7 487.9,187.7 490.5,182.6 493.2,182.4 495.8,181.6 498.4,179.6 501.1,175.9 503.7,172.4 506.4,172.2 509.0,172.2 511.6,166.9 514.3,162.3 516.9,160.2 519.5,157.6 522.2,155.3 524.8,152.1 527.5,151.9 530.1,151.9 532.7,151.9 535.4,150.3 538.0,148.8 540.7,141.9 543.3,139.9 545.9,137.0 548.6,131.7 551.2,121.6 553.9,116.1 556.5,111.4 559.1,107.5 561.8,101.2 564.4,99.0 567.1,96.1 569.7,91.1 572.3,89.0 575.0,80.9 577.6,80.9 580.3,78.0 582.9,70.7 585.5,70.7 588.2,68.3 590.8,60.5 593.5,60.5 596.1,56.7 598.7,50.4 601.4,45.9 604.0,45.9 606.7,45.3 609.3,45.1 611.9,44.9 614.6,44.9 617.2,44.7 619.8,44.7 622.5,44.7 625.1,44.7 627.8,44.7 630.4,44.5 633.0,44.5 635.7,44.5 638.3,44.5 641.0,44.5 643.6,44.5 646.2,44.5 648.9,44.5 651.5,44.5 654.2,44.3 656.8,44.3 659.4,44.1 662.1,44.1 664.7,40.6 667.4,40.6 670.0,40.0 670,325" fill="#10b981" opacity="0.12"/>
  <polyline points="55.0,317.1 57.6,316.7 60.3,315.8 62.9,315.4 65.6,314.8 68.2,313.4 70.8,312.4 73.5,312.2 76.1,312.0 78.8,311.6 81.4,311.4 84.0,311.2 86.7,310.8 89.3,310.4 92.0,310.1 94.6,309.9 97.2,309.9 99.9,309.7 102.5,309.5 105.2,309.5 107.8,309.5 110.4,309.3 113.1,309.3 115.7,309.1 118.3,309.1 121.0,309.1 123.6,309.1 126.3,309.1 128.9,308.7 131.5,308.7 134.2,308.7 136.8,308.5 139.5,308.3 142.1,308.1 144.7,308.1 147.4,307.9 150.0,307.5 152.7,307.5 155.3,307.5 157.9,307.5 160.6,307.1 163.2,306.9 165.9,306.7 168.5,306.7 171.1,306.7 173.8,306.5 176.4,306.3 179.1,306.1 181.7,306.1 184.3,306.1 187.0,306.1 189.6,305.9 192.3,305.7 194.9,305.5 197.5,304.9 200.2,304.7 202.8,304.7 205.5,304.7 208.1,304.7 210.7,304.7 213.4,304.5 216.0,304.5 218.6,304.5 221.3,304.5 223.9,304.3 226.6,304.0 229.2,304.0 231.8,303.8 234.5,303.8 237.1,303.6 239.8,303.6 242.4,303.6 245.0,303.6 247.7,303.6 250.3,303.6 253.0,303.6 255.6,303.6 258.2,291.8 260.9,285.5 263.5,280.7 266.2,279.6 268.8,278.8 271.4,277.8 274.1,277.6 276.7,277.4 279.4,276.2 282.0,275.8 284.6,275.6 287.3,275.4 289.9,275.2 292.6,275.2 295.2,275.2 297.8,275.0 300.5,275.0 303.1,275.0 305.8,274.8 308.4,274.6 311.0,274.3 313.7,273.9 316.3,273.9 318.9,273.7 321.6,273.5 324.2,273.5 326.9,273.5 329.5,272.3 332.1,270.9 334.8,268.7 337.4,268.7 340.1,268.0 342.7,267.0 345.3,266.8 348.0,264.0 350.6,263.4 353.3,262.1 355.9,260.7 358.5,259.3 361.2,257.7 363.8,257.1 366.5,255.4 369.1,254.0 371.7,253.2 374.4,252.8 377.0,252.0 379.7,251.8 382.3,251.2 384.9,249.3 387.6,247.9 390.2,243.6 392.9,242.4 395.5,242.0 398.1,241.0 400.8,240.8 403.4,239.6 406.1,238.3 408.7,237.9 411.3,236.3 414.0,235.1 416.6,233.5 419.2,232.8 421.9,231.0 424.5,228.0 427.2,223.3 429.8,221.7 432.4,220.6 435.1,219.4 437.7,219.0 440.4,217.4 443.0,214.9 445.6,213.1 448.3,211.5 450.9,209.9 453.6,208.4 456.2,205.6 458.8,202.9 461.5,202.7 464.1,201.9 466.8,200.3 469.4,199.5 472.0,199.1 474.7,198.5 477.3,196.2 480.0,194.8 482.6,192.8 485.2,190.7 487.9,187.7 490.5,182.6 493.2,182.4 495.8,181.6 498.4,179.6 501.1,175.9 503.7,172.4 506.4,172.2 509.0,172.2 511.6,166.9 514.3,162.3 516.9,160.2 519.5,157.6 522.2,155.3 524.8,152.1 527.5,151.9 530.1,151.9 532.7,151.9 535.4,150.3 538.0,148.8 540.7,141.9 543.3,139.9 545.9,137.0 548.6,131.7 551.2,121.6 553.9,116.1 556.5,111.4 559.1,107.5 561.8,101.2 564.4,99.0 567.1,96.1 569.7,91.1 572.3,89.0 575.0,80.9 577.6,80.9 580.3,78.0 582.9,70.7 585.5,70.7 588.2,68.3 590.8,60.5 593.5,60.5 596.1,56.7 598.7,50.4 601.4,45.9 604.0,45.9 606.7,45.3 609.3,45.1 611.9,44.9 614.6,44.9 617.2,44.7 619.8,44.7 622.5,44.7 625.1,44.7 627.8,44.7 630.4,44.5 633.0,44.5 635.7,44.5 638.3,44.5 641.0,44.5 643.6,44.5 646.2,44.5 648.9,44.5 651.5,44.5 654.2,44.3 656.8,44.3 659.4,44.1 662.1,44.1 664.7,40.6 667.4,40.6 670.0,40.0" fill="none" stroke="#10b981" stroke-width="2" stroke-linejoin="round"/>
  <circle cx="258.2403433476395" cy="291.84154175588867" r="3.5" fill="#10b981" stroke="#0d1117" stroke-width="1.5"/>
  <text x="258.2403433476395" y="267.84154175588867" text-anchor="middle" fill="#e6edf3" font-size="9">parser</text>
  <text x="258.2403433476395" y="279.84154175588867" text-anchor="middle" fill="#e6edf3" font-size="9">complete</text>
  <circle cx="334.7854077253219" cy="266.82012847965734" r="3.5" fill="#10b981" stroke="#0d1117" stroke-width="1.5"/>
  <text x="334.7854077253219" y="242.82012847965734" text-anchor="middle" fill="#e6edf3" font-size="9">286 fixture</text>
  <text x="334.7854077253219" y="254.82012847965734" text-anchor="middle" fill="#e6edf3" font-size="9">tests</text>
  <circle cx="516.9098712446352" cy="157.58029978586723" r="3.5" fill="#10b981" stroke="#0d1117" stroke-width="1.5"/>
  <text x="516.9098712446352" y="133.58029978586723" text-anchor="middle" fill="#e6edf3" font-size="9">all rules</text>
  <text x="516.9098712446352" y="145.58029978586723" text-anchor="middle" fill="#e6edf3" font-size="9">implemented</text>
  <circle cx="670.0" cy="40.0" r="3.5" fill="#10b981" stroke="#0d1117" stroke-width="1.5"/>
  <text x="670.0" y="60.0" text-anchor="middle" fill="#e6edf3" font-size="9">1,401 tests</text>
  <text x="670.0" y="72.0" text-anchor="middle" fill="#e6edf3" font-size="9">passing</text>
</svg>